<!-- Generator: Adobe Illustrator 22.0.1, SVG Export Plug-In  -->
<svg version="1.1"
	 xmlns="http://www.w3.org/2000/svg" xmlns:xlink="http://www.w3.org/1999/xlink" xmlns:a="http://ns.adobe.com/AdobeSVGViewerExtensions/3.0/"
	 x="0px" y="0px" width="93.641px" height="162.535px" viewBox="0 0 93.641 162.535"
	 style="enable-background:new 0 0 93.641 162.535;" xml:space="preserve">
<style type="text/css">
	.st0{fill:#C9C1BE;}
	.st1{fill:#ADA8A6;}
	.st2{fill:#231F20;}
</style>
<defs>
</defs>
<g>
	<path class="st0" d="M33.687,58.242c-3.32,4.345-5.21,8.148-9.455,18.67c-1.111,2.761-1.515,4.052-1.982,5.548
		c-0.393,1.26-0.84,2.688-1.78,5.22c-0.507,1.357-1.022,3.106-1.675,5.32c-1.862,6.315-4.677,15.861-10.871,28.154
		c-0.399,0.793-1.036,1.771-1.771,2.902c-1.662,2.556-4.444,6.833-3.562,8.553c0.642,1.268,1.691,1.664,3.645,2.313
		c1.094,0.362,2.332,0.774,3.671,1.487c5.064,2.699,7.47,5.295,10.017,8.044c2.099,2.262,4.267,4.602,8.198,7.36
		c1.999,1.399,3.808,3.208,5.403,4.806c1.569,1.57,3.546,3.556,4.341,3.484c0.03-0.001,0.102-0.005,0.239-0.172
		c1.194-1.439-0.145-4.835-0.648-6.113l-0.09-0.229c-3.964-10.222-1.484-22.825,3.455-47.936c5.17-26.31,8.638-34.049,11.17-39.701
		c0.037-0.082,0.069-0.157,0.105-0.239c-6.792-0.382-11.641-2.004-15.957-5.303C35.266,59.742,34.449,59.013,33.687,58.242z"/>
	<path class="st1" d="M48.527,43.986c-7.531-1.964-11.846-4.542-12.812-7.676c-0.938-3.052,0.153-7.482,2.848-11.563
		c3.24-4.907,7.988-8.136,12.702-8.635l0.166-0.019c7.078-0.786,12.287-0.106,15.068,1.971c4.831,3.624,9.084,15.094,6.852,20.926
		c0.103,0.205,0.188,0.415,0.249,0.634c0.331,1.137,0.686,3.301,1.178,6.297c0.563,3.428,1.309,7.967,2.354,12.951
		c3.425-3.698,5.721-8.807,7.159-15.871c1.535-7.526,2.861-14.026-0.194-21.151c-3.376-7.863-10.148-11.68-13.786-13.73
		c-4.215-2.375-15.393-8.673-26.759-3.99c-7.03,2.9-12.159,9.012-15.243,18.166c-3.535,10.508-0.469,19.492,0.539,22.443
		c1.043,3.048,2.449,7.162,5.669,10.835c0.922,1.059,1.963,2.035,3.099,2.908c3.936,3.007,8.424,4.479,14.79,4.814
		c-0.576-2.608-1.167-5.034-1.699-7.208C49.434,50.9,48.484,47.002,48.527,43.986z"/>
	<path class="st0" d="M88.165,132.059c-2.722-5.798-2.453-8.25-2.167-10.845c0.155-1.424,0.304-2.77-0.047-4.862
		c-0.797-4.745-0.662-8.402-0.532-11.939c0.225-6.127,0.438-11.914-4.163-23.035c-2.316-5.595-4.347-12.269-6.033-19.837
		c-1.31-5.886-2.196-11.284-2.844-15.226c-0.46-2.803-0.823-5.016-1.115-6.021c-0.047-0.165-0.125-0.316-0.236-0.459l-0.012-0.014
		c-0.112-0.148-0.266-0.271-0.445-0.357c-1.78-0.862-4.651-1.257-7.634-1.257c-4.647,0-9.563,0.959-11.045,2.608
		c-0.495,0.551-0.788,1.323-0.895,2.358c-0.286,2.729,0.753,6.969,2.069,12.336c0.641,2.612,1.365,5.572,2.051,8.811
		c1.143,5.391,1.924,10.428,2.386,15.401c0.345,3.675,0.207,5.645-0.563,16.579c-0.141,1.999-0.303,4.302-0.487,6.972
		c-0.945,13.757,1.337,23.275,3.171,30.924c0.227,0.945,0.445,1.858,0.649,2.743c0.4,1.73,0.72,3.397,1.003,4.868
		c0.875,4.554,1.507,7.844,3.54,9.171c1.06,0.691,1.949,1.616,2.642,2.75c0.275,0.449,0.712,0.76,1.226,0.873
		c0.495,0.111,1.003,0.015,1.424-0.265c2.191-1.452,4.363-3.965,5.53-5.314c0.339-0.393,0.611-0.706,0.801-0.903
		c5.438-5.678,9.128-6.145,11.569-6.453c1.88-0.238,2.447-0.309,3.124-2.753c0.229-0.827-0.025-1.336-1.042-3.153
		C89.567,134.824,88.915,133.657,88.165,132.059z"/>
	<path class="st2" d="M90.365,131.026c-2.431-5.18-2.208-7.203-1.951-9.547c0.16-1.454,0.341-3.103-0.065-5.528
		c-0.755-4.502-0.625-8.034-0.5-11.448c0.225-6.118,0.456-12.444-4.347-24.055c-2.192-5.297-4.124-11.611-5.75-18.76
		c4.391-4.121,7.236-9.927,8.921-18.201c1.55-7.597,3.014-14.771-0.342-22.595c-3.7-8.619-10.938-12.698-14.834-14.893
		c-4.489-2.53-16.414-9.25-28.87-4.115c-7.71,3.181-13.302,9.787-16.623,19.643c-3.796,11.284-0.529,20.853,0.561,24.044
		c0.966,2.824,2.394,6.999,5.474,10.829c-3.656,4.706-5.594,8.535-10.06,19.604c-1.148,2.851-1.565,4.186-2.048,5.731
		c-0.385,1.23-0.821,2.626-1.738,5.096c-0.536,1.437-1.063,3.222-1.729,5.481c-1.838,6.232-4.614,15.65-10.709,27.747
		c-0.341,0.674-0.972,1.645-1.64,2.672c-2.323,3.571-5.213,8.015-3.691,10.982c1.122,2.212,3.027,2.845,5.043,3.515
		c1.052,0.349,2.139,0.709,3.294,1.325c4.702,2.507,6.869,4.845,9.378,7.551c2.082,2.246,4.442,4.792,8.587,7.7
		c1.825,1.275,3.553,3.006,5.077,4.532c2.338,2.339,4.194,4.198,6.046,4.198c0.043,0,0.086-0.001,0.129-0.004
		c0.536-0.025,1.317-0.227,1.996-1.049c2.111-2.545,0.45-6.757-0.259-8.555l-0.086-0.219c-3.708-9.563-1.273-21.936,3.575-46.587
		c4.637-23.597,7.865-32.045,10.279-37.549c0.727,3.914,1.256,7.665,1.601,11.376c0.326,3.477,0.189,5.418-0.568,16.183
		c-0.142,2.001-0.303,4.304-0.487,6.976c-0.972,14.129,1.358,23.848,3.231,31.657c0.225,0.939,0.441,1.844,0.646,2.723
		c0.39,1.688,0.691,3.26,0.983,4.78c0.95,4.949,1.701,8.858,4.6,10.749c0.755,0.491,1.392,1.157,1.896,1.983
		c0.627,1.019,1.612,1.721,2.774,1.976c0.31,0.068,0.624,0.103,0.934,0.103c0.831,0,1.645-0.243,2.356-0.715
		c2.469-1.636,4.783-4.314,6.026-5.751c0.304-0.352,0.548-0.636,0.717-0.813c4.844-5.055,7.894-5.44,10.119-5.723
		c2.448-0.309,4.129-0.79,5.161-4.514c0.507-1.822-0.197-3.081-1.262-4.988C91.707,133.671,91.079,132.546,90.365,131.026z
		 M51.99,65.953c-2.532,5.652-6,13.392-11.17,39.701c-4.939,25.11-7.419,37.714-3.455,47.936l0.09,0.229
		c0.504,1.278,1.843,4.674,0.648,6.113c-0.138,0.167-0.209,0.171-0.239,0.172c-0.795,0.071-2.771-1.914-4.341-3.484
		c-1.596-1.598-3.404-3.407-5.403-4.806c-3.932-2.758-6.1-5.099-8.198-7.36c-2.547-2.749-4.953-5.345-10.017-8.044
		c-1.339-0.713-2.577-1.125-3.671-1.487c-1.953-0.648-3.002-1.045-3.645-2.313c-0.882-1.72,1.9-5.997,3.562-8.553
		c0.735-1.132,1.372-2.109,1.771-2.902c6.194-12.293,9.009-21.839,10.871-28.154c0.652-2.214,1.168-3.963,1.675-5.32
		c0.941-2.532,1.387-3.96,1.78-5.22c0.468-1.496,0.871-2.787,1.982-5.548c4.245-10.521,6.135-14.325,9.455-18.67
		c0.762,0.771,1.579,1.5,2.451,2.169c4.316,3.299,9.165,4.921,15.957,5.303C52.059,65.795,52.027,65.871,51.99,65.953z
		 M37.616,58.482c-1.136-0.873-2.177-1.85-3.099-2.908c-3.22-3.673-4.626-7.787-5.669-10.835
		c-1.008-2.951-4.074-11.935-0.539-22.443C31.393,13.142,36.522,7.03,43.552,4.13c11.366-4.683,22.544,1.615,26.759,3.99
		c3.638,2.05,10.41,5.868,13.786,13.73c3.056,7.125,1.73,13.625,0.194,21.151c-1.438,7.064-3.734,12.173-7.159,15.871
		c-1.046-4.984-1.791-9.523-2.354-12.951c-0.492-2.996-0.847-5.16-1.178-6.297c-0.062-0.219-0.146-0.429-0.249-0.634
		c2.232-5.832-2.021-17.303-6.852-20.926c-2.781-2.077-7.99-2.757-15.068-1.971l-0.166,0.019c-4.714,0.499-9.462,3.728-12.702,8.635
		c-2.694,4.08-3.785,8.511-2.848,11.563c0.966,3.134,5.28,5.712,12.812,7.676c-0.043,3.017,0.907,6.914,2.18,12.102
		c0.532,2.174,1.123,4.6,1.699,7.208C46.04,62.96,41.551,61.489,37.616,58.482z M71.35,37.152c-5.294-2.33-17.986-1.611-21.267,2.04
		c-0.582,0.65-0.984,1.44-1.239,2.366c-6.145-1.645-10.153-3.844-10.807-5.962c-0.718-2.34,0.284-6.072,2.553-9.509
		c2.845-4.309,6.932-7.134,10.934-7.559l0.176-0.02c6.364-0.709,11.101-0.174,13.343,1.501
		C69.162,23.099,72.363,32.309,71.35,37.152z M91.131,138.914c-0.677,2.443-1.244,2.515-3.124,2.753
		c-2.441,0.309-6.131,0.775-11.569,6.453c-0.189,0.197-0.462,0.511-0.801,0.903c-1.167,1.35-3.339,3.862-5.53,5.314
		c-0.421,0.279-0.929,0.376-1.424,0.265c-0.514-0.113-0.95-0.424-1.226-0.873c-0.692-1.134-1.582-2.059-2.642-2.75
		c-2.033-1.327-2.665-4.617-3.54-9.171c-0.283-1.471-0.603-3.139-1.003-4.868c-0.204-0.885-0.423-1.798-0.649-2.743
		c-1.834-7.648-4.116-17.167-3.171-30.924c0.185-2.67,0.347-4.973,0.487-6.972c0.771-10.935,0.908-12.904,0.563-16.579
		c-0.462-4.974-1.242-10.011-2.386-15.401c-0.686-3.239-1.41-6.199-2.051-8.811c-1.316-5.367-2.355-9.607-2.069-12.336
		c0.106-1.035,0.399-1.808,0.895-2.358c1.481-1.649,6.397-2.608,11.045-2.608c2.982,0,5.854,0.395,7.634,1.257
		c0.18,0.086,0.333,0.209,0.445,0.357l0.012,0.014c0.111,0.143,0.189,0.294,0.236,0.459c0.292,1.005,0.655,3.218,1.115,6.021
		c0.647,3.941,1.534,9.34,2.844,15.226c1.687,7.568,3.717,14.242,6.033,19.837c4.601,11.121,4.388,16.908,4.163,23.035
		c-0.13,3.537-0.265,7.194,0.532,11.939c0.351,2.093,0.202,3.438,0.047,4.862c-0.286,2.595-0.555,5.047,2.167,10.845
		c0.749,1.598,1.401,2.765,1.924,3.702C91.106,137.579,91.361,138.087,91.131,138.914z"/>
</g>
</svg>